<mxfile host="app.diagrams.net" modified="2022-07-01T16:47:51.990Z" agent="5.0 (Macintosh; Intel Mac OS X 10_15_7) AppleWebKit/537.36 (KHTML, like Gecko) Chrome/103.0.0.0 Safari/537.36" etag="C8XTSVU80JNAOazgESWv" version="20.0.4" type="github">
  <diagram id="Y3-RQMCVLm5ZOijgho2C" name="Page-1">
    <mxGraphModel dx="1748" dy="850" grid="1" gridSize="10" guides="1" tooltips="1" connect="1" arrows="1" fold="1" page="1" pageScale="1" pageWidth="1100" pageHeight="850" background="none" math="0" shadow="1">
      <root>
        <mxCell id="0" />
        <mxCell id="1" parent="0" />
        <mxCell id="Q6LtDuVTODBfNZp-mWMD-1" value="Yearn Proxy Keeper" style="shape=cube;whiteSpace=wrap;html=1;boundedLbl=1;backgroundOutline=1;darkOpacity=0.05;darkOpacity2=0.1;fillColor=#dae8fc;strokeColor=#6c8ebf;" parent="1" vertex="1">
          <mxGeometry x="360" y="390" width="120" height="80" as="geometry" />
        </mxCell>
        <mxCell id="Q6LtDuVTODBfNZp-mWMD-23" style="edgeStyle=none;rounded=0;orthogonalLoop=1;jettySize=auto;html=1;exitX=0.5;exitY=0;exitDx=0;exitDy=0;entryX=0.505;entryY=1.018;entryDx=0;entryDy=0;entryPerimeter=0;" parent="1" source="Q6LtDuVTODBfNZp-mWMD-4" target="Q6LtDuVTODBfNZp-mWMD-1" edge="1">
          <mxGeometry relative="1" as="geometry" />
        </mxCell>
        <mxCell id="Q6LtDuVTODBfNZp-mWMD-32" value="(4)" style="edgeLabel;html=1;align=center;verticalAlign=middle;resizable=0;points=[];" parent="Q6LtDuVTODBfNZp-mWMD-23" vertex="1" connectable="0">
          <mxGeometry x="-0.2007" relative="1" as="geometry">
            <mxPoint as="offset" />
          </mxGeometry>
        </mxCell>
        <mxCell id="Q6LtDuVTODBfNZp-mWMD-4" value="YDino MS" style="rounded=0;whiteSpace=wrap;html=1;fillColor=#dae8fc;strokeColor=#6c8ebf;" parent="1" vertex="1">
          <mxGeometry x="360" y="530" width="120" height="60" as="geometry" />
        </mxCell>
        <mxCell id="Q6LtDuVTODBfNZp-mWMD-6" value="" style="rounded=0;whiteSpace=wrap;html=1;dashed=1;" parent="1" vertex="1">
          <mxGeometry x="540" y="130" width="160" height="480" as="geometry" />
        </mxCell>
        <mxCell id="Q6LtDuVTODBfNZp-mWMD-7" value="Keeper Networks" style="text;html=1;resizable=0;autosize=1;align=center;verticalAlign=middle;points=[];fillColor=none;strokeColor=none;rounded=0;" parent="1" vertex="1">
          <mxGeometry x="560" y="140" width="120" height="30" as="geometry" />
        </mxCell>
        <mxCell id="Q6LtDuVTODBfNZp-mWMD-17" style="edgeStyle=orthogonalEdgeStyle;rounded=0;orthogonalLoop=1;jettySize=auto;html=1;exitX=0;exitY=0.75;exitDx=0;exitDy=0;entryX=0;entryY=0;entryDx=120;entryDy=50;entryPerimeter=0;" parent="1" source="Q6LtDuVTODBfNZp-mWMD-8" target="Q6LtDuVTODBfNZp-mWMD-1" edge="1">
          <mxGeometry relative="1" as="geometry" />
        </mxCell>
        <mxCell id="Q6LtDuVTODBfNZp-mWMD-24" style="edgeStyle=none;rounded=0;orthogonalLoop=1;jettySize=auto;html=1;exitX=0;exitY=0.25;exitDx=0;exitDy=0;entryX=1.005;entryY=0.808;entryDx=0;entryDy=0;entryPerimeter=0;" parent="1" source="Q6LtDuVTODBfNZp-mWMD-8" target="Q6LtDuVTODBfNZp-mWMD-15" edge="1">
          <mxGeometry relative="1" as="geometry" />
        </mxCell>
        <mxCell id="Q6LtDuVTODBfNZp-mWMD-29" value="(1)" style="edgeLabel;html=1;align=center;verticalAlign=middle;resizable=0;points=[];" parent="Q6LtDuVTODBfNZp-mWMD-24" vertex="1" connectable="0">
          <mxGeometry x="-0.0478" relative="1" as="geometry">
            <mxPoint as="offset" />
          </mxGeometry>
        </mxCell>
        <mxCell id="Q6LtDuVTODBfNZp-mWMD-27" style="edgeStyle=none;rounded=0;orthogonalLoop=1;jettySize=auto;html=1;exitX=-0.008;exitY=0.603;exitDx=0;exitDy=0;entryX=0.5;entryY=0;entryDx=0;entryDy=0;endArrow=blockThin;endFill=1;exitPerimeter=0;" parent="1" source="Q6LtDuVTODBfNZp-mWMD-8" target="Q6LtDuVTODBfNZp-mWMD-13" edge="1">
          <mxGeometry relative="1" as="geometry">
            <Array as="points">
              <mxPoint x="420" y="216" />
            </Array>
          </mxGeometry>
        </mxCell>
        <mxCell id="Q6LtDuVTODBfNZp-mWMD-31" value="(2)" style="edgeLabel;html=1;align=center;verticalAlign=middle;resizable=0;points=[];" parent="Q6LtDuVTODBfNZp-mWMD-27" vertex="1" connectable="0">
          <mxGeometry x="-0.2741" y="3" relative="1" as="geometry">
            <mxPoint as="offset" />
          </mxGeometry>
        </mxCell>
        <mxCell id="Q6LtDuVTODBfNZp-mWMD-8" value="Gelato" style="rounded=1;whiteSpace=wrap;html=1;fillColor=#dae8fc;strokeColor=#6c8ebf;" parent="1" vertex="1">
          <mxGeometry x="560" y="180" width="120" height="60" as="geometry" />
        </mxCell>
        <mxCell id="Q6LtDuVTODBfNZp-mWMD-18" style="edgeStyle=orthogonalEdgeStyle;rounded=0;orthogonalLoop=1;jettySize=auto;html=1;exitX=0;exitY=0.5;exitDx=0;exitDy=0;entryX=0;entryY=0;entryDx=120;entryDy=50;entryPerimeter=0;" parent="1" source="Q6LtDuVTODBfNZp-mWMD-9" target="Q6LtDuVTODBfNZp-mWMD-1" edge="1">
          <mxGeometry relative="1" as="geometry" />
        </mxCell>
        <mxCell id="Q6LtDuVTODBfNZp-mWMD-9" value="Keep3r" style="rounded=1;whiteSpace=wrap;html=1;fillColor=#f5f5f5;fontColor=#333333;strokeColor=#666666;" parent="1" vertex="1">
          <mxGeometry x="560" y="268" width="120" height="60" as="geometry" />
        </mxCell>
        <mxCell id="Q6LtDuVTODBfNZp-mWMD-19" style="edgeStyle=orthogonalEdgeStyle;rounded=0;orthogonalLoop=1;jettySize=auto;html=1;exitX=0;exitY=0.5;exitDx=0;exitDy=0;entryX=0;entryY=0;entryDx=120;entryDy=50;entryPerimeter=0;" parent="1" source="Q6LtDuVTODBfNZp-mWMD-10" target="Q6LtDuVTODBfNZp-mWMD-1" edge="1">
          <mxGeometry relative="1" as="geometry">
            <Array as="points">
              <mxPoint x="520" y="385" />
              <mxPoint x="520" y="440" />
            </Array>
          </mxGeometry>
        </mxCell>
        <mxCell id="Q6LtDuVTODBfNZp-mWMD-10" value="Chainlink" style="rounded=1;whiteSpace=wrap;html=1;fillColor=#f5f5f5;fontColor=#333333;strokeColor=#666666;" parent="1" vertex="1">
          <mxGeometry x="560" y="355" width="120" height="60" as="geometry" />
        </mxCell>
        <mxCell id="Q6LtDuVTODBfNZp-mWMD-20" style="edgeStyle=orthogonalEdgeStyle;rounded=0;orthogonalLoop=1;jettySize=auto;html=1;exitX=0;exitY=0.5;exitDx=0;exitDy=0;entryX=0;entryY=0;entryDx=120;entryDy=50;entryPerimeter=0;" parent="1" source="Q6LtDuVTODBfNZp-mWMD-11" target="Q6LtDuVTODBfNZp-mWMD-1" edge="1">
          <mxGeometry relative="1" as="geometry" />
        </mxCell>
        <mxCell id="Q6LtDuVTODBfNZp-mWMD-11" value="Quicknode" style="rounded=1;whiteSpace=wrap;html=1;fillColor=#f5f5f5;fontColor=#333333;strokeColor=#666666;" parent="1" vertex="1">
          <mxGeometry x="560" y="443" width="120" height="60" as="geometry" />
        </mxCell>
        <mxCell id="Q6LtDuVTODBfNZp-mWMD-21" style="edgeStyle=orthogonalEdgeStyle;rounded=0;orthogonalLoop=1;jettySize=auto;html=1;exitX=0;exitY=0.5;exitDx=0;exitDy=0;entryX=0;entryY=0;entryDx=120;entryDy=50;entryPerimeter=0;" parent="1" source="Q6LtDuVTODBfNZp-mWMD-12" target="Q6LtDuVTODBfNZp-mWMD-1" edge="1">
          <mxGeometry relative="1" as="geometry" />
        </mxCell>
        <mxCell id="Q6LtDuVTODBfNZp-mWMD-30" value="(3)" style="edgeLabel;html=1;align=center;verticalAlign=middle;resizable=0;points=[];" parent="Q6LtDuVTODBfNZp-mWMD-21" vertex="1" connectable="0">
          <mxGeometry x="0.81" y="-1" relative="1" as="geometry">
            <mxPoint as="offset" />
          </mxGeometry>
        </mxCell>
        <mxCell id="Q6LtDuVTODBfNZp-mWMD-12" value="Others" style="rounded=1;whiteSpace=wrap;html=1;fillColor=#f5f5f5;fontColor=#333333;strokeColor=#666666;" parent="1" vertex="1">
          <mxGeometry x="560" y="530" width="120" height="60" as="geometry" />
        </mxCell>
        <mxCell id="Q6LtDuVTODBfNZp-mWMD-22" style="rounded=0;orthogonalLoop=1;jettySize=auto;html=1;exitX=0.492;exitY=0.008;exitDx=0;exitDy=0;exitPerimeter=0;entryX=0.5;entryY=1;entryDx=0;entryDy=0;" parent="1" source="Q6LtDuVTODBfNZp-mWMD-1" target="Q6LtDuVTODBfNZp-mWMD-13" edge="1">
          <mxGeometry relative="1" as="geometry">
            <mxPoint x="480" y="350" as="targetPoint" />
          </mxGeometry>
        </mxCell>
        <mxCell id="Q6LtDuVTODBfNZp-mWMD-33" value="(3,4)" style="edgeLabel;html=1;align=center;verticalAlign=middle;resizable=0;points=[];" parent="Q6LtDuVTODBfNZp-mWMD-22" vertex="1" connectable="0">
          <mxGeometry x="-0.1135" relative="1" as="geometry">
            <mxPoint as="offset" />
          </mxGeometry>
        </mxCell>
        <mxCell id="Q6LtDuVTODBfNZp-mWMD-13" value="Strategy" style="shape=hexagon;perimeter=hexagonPerimeter2;whiteSpace=wrap;html=1;fixedSize=1;" parent="1" vertex="1">
          <mxGeometry x="375" y="260" width="90" height="80" as="geometry" />
        </mxCell>
        <mxCell id="Q6LtDuVTODBfNZp-mWMD-15" value="Yearn Lens" style="shape=cube;whiteSpace=wrap;html=1;boundedLbl=1;backgroundOutline=1;darkOpacity=0.05;darkOpacity2=0.1;fillColor=#dae8fc;strokeColor=#6c8ebf;" parent="1" vertex="1">
          <mxGeometry x="360" y="130" width="120" height="80" as="geometry" />
        </mxCell>
        <mxCell id="Q6LtDuVTODBfNZp-mWMD-35" style="edgeStyle=none;rounded=0;orthogonalLoop=1;jettySize=auto;html=1;exitX=0;exitY=0;exitDx=120;exitDy=50;exitPerimeter=0;entryX=0;entryY=0.5;entryDx=0;entryDy=0;endArrow=blockThin;endFill=1;" parent="1" source="Q6LtDuVTODBfNZp-mWMD-34" target="Q6LtDuVTODBfNZp-mWMD-13" edge="1">
          <mxGeometry relative="1" as="geometry" />
        </mxCell>
        <mxCell id="Q6LtDuVTODBfNZp-mWMD-36" value="(5)" style="edgeLabel;html=1;align=center;verticalAlign=middle;resizable=0;points=[];" parent="Q6LtDuVTODBfNZp-mWMD-35" vertex="1" connectable="0">
          <mxGeometry x="-0.1636" y="1" relative="1" as="geometry">
            <mxPoint as="offset" />
          </mxGeometry>
        </mxCell>
        <mxCell id="Q6LtDuVTODBfNZp-mWMD-34" value="Yearn Trade Handler" style="shape=cube;whiteSpace=wrap;html=1;boundedLbl=1;backgroundOutline=1;darkOpacity=0.05;darkOpacity2=0.1;fillColor=#dae8fc;strokeColor=#6c8ebf;" parent="1" vertex="1">
          <mxGeometry x="200" y="250" width="120" height="80" as="geometry" />
        </mxCell>
      </root>
    </mxGraphModel>
  </diagram>
</mxfile>
